<svg xmlns="http://www.w3.org/2000/svg" viewBox="0 0 1001 1001"><defs><style>.a{fill:#c62828;stroke:#000;stroke-miterlimit:10;}.b{fill:#9a0007;}.c{fill:#fff;}</style></defs><title>leci</title><rect class="a" x="0.5" y="0.5" width="1000" height="1000" rx="57.19"/><path class="b" d="M329,404.42H463.26v59.32H251.88V143.82H329Z" transform="translate(0.5 0.5)"/><path class="b" d="M806.25,328H685v76.47H828.22v59.32H607.84V143.82H828.66v59.55H685v67.45H806.25Z" transform="translate(0.5 0.5)"/><path class="b" d="M510.72,770.25q-1.55,33.4-18,59t-46.25,39.66Q416.68,883,378.44,883q-63.06,0-99.31-41.08t-36.26-116V710.05q0-47,16.37-82.29t47.13-54.49Q337.14,554,377.56,554q58.23,0,93.61,30.66t40.21,84.48H434.47q-.87-29.22-14.72-42t-42.19-12.74q-28.79,0-42.18,21.53t-14.07,68.78v22.63q0,51.2,12.86,73.17t44.27,22q26.6,0,40.65-12.52T434,770.25Z" transform="translate(0.5 0.5)"/><path class="b" d="M741.43,878.58h-76.9V558.66h76.9Z" transform="translate(0.5 0.5)"/><path class="c" d="M296.68,380.22H430.93v59.33H219.56V119.63h77.12Z" transform="translate(0.5 0.5)"/><path class="c" d="M773.93,303.76H652.64v76.46H795.9v59.33H575.51V119.63H796.34v59.54H652.64v67.46H773.93Z" transform="translate(0.5 0.5)"/><path class="c" d="M478.4,746.06q-1.54,33.41-18,59t-46.25,39.66q-29.79,14.06-68,14.06-63.06,0-99.32-41.09t-36.25-116V685.86q0-47,16.37-82.29t47.13-54.49q30.76-19.23,71.19-19.23,58.23,0,93.6,30.65T479.05,645h-76.9q-.88-29.22-14.72-42t-42.19-12.74q-28.78,0-42.19,21.53T289,680.58v22.63q0,51.21,12.85,73.17t44.28,22q26.58,0,40.65-12.53t14.94-39.77Z" transform="translate(0.5 0.5)"/><path class="c" d="M709.11,854.39H632.2V534.46h76.91Z" transform="translate(0.5 0.5)"/></svg>